<svg xmlns="http://www.w3.org/2000/svg" width="707.483" height="569.235" viewBox="0 0 707.483 569.235">
  <g id="Group_1868" data-name="Group 1868" transform="translate(6601.742 -6752.287)">
    <path id="Path_3" data-name="Path 3" d="M1983.023,228.38a.44.44,0,1,0-.439-.44.44.44,0,0,0,.439.44Z" transform="translate(-8402.256 6570.915)" fill="#0e96d4"/>
    <path id="Icon_ionic-ios-git-network" data-name="Icon ionic-ios-git-network" d="M36.042,0a8.134,8.134,0,0,0-6.107,13.49,8.037,8.037,0,0,0,4.393,2.588v4.957L22.081,27.405,9.844,21.034V16.078A8.124,8.124,0,1,0,2.013,13.49a8.037,8.037,0,0,0,4.393,2.588v6.6a.8.8,0,0,0,.449.725L20.367,30.4v5.049a8.122,8.122,0,1,0,7.82,2.588,8.037,8.037,0,0,0-4.393-2.588V30.4L37.307,23.4a.8.8,0,0,0,.449-.725v-6.6A8.131,8.131,0,0,0,36.042,0ZM3.427,8.131a4.692,4.692,0,1,1,4.692,4.692A4.7,4.7,0,0,1,3.427,8.131Zm23.346,35.26A4.692,4.692,0,1,1,22.081,38.7,4.7,4.7,0,0,1,26.773,43.391Zm9.269-30.557a4.692,4.692,0,1,1,4.692-4.692A4.7,4.7,0,0,1,36.042,12.834Z" transform="translate(-5946.114 7253.864) rotate(45)" fill="#d1e7ff"/>
    <path id="Icon_ionic-ios-git-network-2" data-name="Icon ionic-ios-git-network" d="M36.042,0a8.134,8.134,0,0,0-6.107,13.49,8.037,8.037,0,0,0,4.393,2.588v4.957L22.081,27.405,9.844,21.034V16.078A8.124,8.124,0,1,0,2.013,13.49a8.037,8.037,0,0,0,4.393,2.588v6.6a.8.8,0,0,0,.449.725L20.367,30.4v5.049a8.122,8.122,0,1,0,7.82,2.588,8.037,8.037,0,0,0-4.393-2.588V30.4L37.307,23.4a.8.8,0,0,0,.449-.725v-6.6A8.131,8.131,0,0,0,36.042,0ZM3.427,8.131a4.692,4.692,0,1,1,4.692,4.692A4.7,4.7,0,0,1,3.427,8.131Zm23.346,35.26A4.692,4.692,0,1,1,22.081,38.7,4.7,4.7,0,0,1,26.773,43.391Zm9.269-30.557a4.692,4.692,0,1,1,4.692-4.692A4.7,4.7,0,0,1,36.042,12.834Z" transform="translate(-6155.489 6988.701) rotate(45)" fill="#d1e7ff"/>
    <path id="Icon_ionic-ios-git-network-3" data-name="Icon ionic-ios-git-network" d="M36.042,0a8.134,8.134,0,0,0-6.107,13.49,8.037,8.037,0,0,0,4.393,2.588v4.957L22.081,27.405,9.844,21.034V16.078A8.124,8.124,0,1,0,2.013,13.49a8.037,8.037,0,0,0,4.393,2.588v6.6a.8.8,0,0,0,.449.725L20.367,30.4v5.049a8.122,8.122,0,1,0,7.82,2.588,8.037,8.037,0,0,0-4.393-2.588V30.4L37.307,23.4a.8.8,0,0,0,.449-.725v-6.6A8.131,8.131,0,0,0,36.042,0ZM3.427,8.131a4.692,4.692,0,1,1,4.692,4.692A4.7,4.7,0,0,1,3.427,8.131Zm23.346,35.26A4.692,4.692,0,1,1,22.081,38.7,4.7,4.7,0,0,1,26.773,43.391Zm9.269-30.557a4.692,4.692,0,1,1,4.692-4.692A4.7,4.7,0,0,1,36.042,12.834Z" transform="translate(-6565.311 7008.171) rotate(45)" fill="#d1e7ff"/>
    <path id="Icon_ionic-ios-git-network-4" data-name="Icon ionic-ios-git-network" d="M36.042,0a8.134,8.134,0,0,0-6.107,13.49,8.037,8.037,0,0,0,4.393,2.588v4.957L22.081,27.405,9.844,21.034V16.078A8.124,8.124,0,1,0,2.013,13.49a8.037,8.037,0,0,0,4.393,2.588v6.6a.8.8,0,0,0,.449.725L20.367,30.4v5.049a8.122,8.122,0,1,0,7.82,2.588,8.037,8.037,0,0,0-4.393-2.588V30.4L37.307,23.4a.8.8,0,0,0,.449-.725v-6.6A8.131,8.131,0,0,0,36.042,0ZM3.427,8.131a4.692,4.692,0,1,1,4.692,4.692A4.7,4.7,0,0,1,3.427,8.131Zm23.346,35.26A4.692,4.692,0,1,1,22.081,38.7,4.7,4.7,0,0,1,26.773,43.391Zm9.269-30.557a4.692,4.692,0,1,1,4.692-4.692A4.7,4.7,0,0,1,36.042,12.834Z" transform="translate(-6340.483 6835.57) rotate(45)" fill="#d1e7ff"/>
    <path id="Icon_ionic-ios-git-network-5" data-name="Icon ionic-ios-git-network" d="M36.042,0a8.134,8.134,0,0,0-6.107,13.49,8.037,8.037,0,0,0,4.393,2.588v4.957L22.081,27.405,9.844,21.034V16.078A8.124,8.124,0,1,0,2.013,13.49a8.037,8.037,0,0,0,4.393,2.588v6.6a.8.8,0,0,0,.449.725L20.367,30.4v5.049a8.122,8.122,0,1,0,7.82,2.588,8.037,8.037,0,0,0-4.393-2.588V30.4L37.307,23.4a.8.8,0,0,0,.449-.725v-6.6A8.131,8.131,0,0,0,36.042,0ZM3.427,8.131a4.692,4.692,0,1,1,4.692,4.692A4.7,4.7,0,0,1,3.427,8.131Zm23.346,35.26A4.692,4.692,0,1,1,22.081,38.7,4.7,4.7,0,0,1,26.773,43.391Zm9.269-30.557a4.692,4.692,0,1,1,4.692-4.692A4.7,4.7,0,0,1,36.042,12.834Z" transform="translate(-6146.705 7170.854) rotate(-135)" fill="#d1e7ff"/>
    <path id="Icon_ionic-ios-git-network-6" data-name="Icon ionic-ios-git-network" d="M36.042,0a8.134,8.134,0,0,0-6.107,13.49,8.037,8.037,0,0,0,4.393,2.588v4.957L22.081,27.405,9.844,21.034V16.078A8.124,8.124,0,1,0,2.013,13.49a8.037,8.037,0,0,0,4.393,2.588v6.6a.8.8,0,0,0,.449.725L20.367,30.4v5.049a8.122,8.122,0,1,0,7.82,2.588,8.037,8.037,0,0,0-4.393-2.588V30.4L37.307,23.4a.8.8,0,0,0,.449-.725v-6.6A8.131,8.131,0,0,0,36.042,0ZM3.427,8.131a4.692,4.692,0,1,1,4.692,4.692A4.7,4.7,0,0,1,3.427,8.131Zm23.346,35.26A4.692,4.692,0,1,1,22.081,38.7,4.7,4.7,0,0,1,26.773,43.391Zm9.269-30.557a4.692,4.692,0,1,1,4.692-4.692A4.7,4.7,0,0,1,36.042,12.834Z" transform="translate(-5954.613 6975.793) rotate(-135)" fill="#d1e7ff"/>
    <path id="Icon_ionic-ios-git-network-7" data-name="Icon ionic-ios-git-network" d="M36.042,0a8.134,8.134,0,0,0-6.107,13.49,8.037,8.037,0,0,0,4.393,2.588v4.957L22.081,27.405,9.844,21.034V16.078A8.124,8.124,0,1,0,2.013,13.49a8.037,8.037,0,0,0,4.393,2.588v6.6a.8.8,0,0,0,.449.725L20.367,30.4v5.049a8.122,8.122,0,1,0,7.82,2.588,8.037,8.037,0,0,0-4.393-2.588V30.4L37.307,23.4a.8.8,0,0,0,.449-.725v-6.6A8.131,8.131,0,0,0,36.042,0ZM3.427,8.131a4.692,4.692,0,1,1,4.692,4.692A4.7,4.7,0,0,1,3.427,8.131Zm23.346,35.26A4.692,4.692,0,1,1,22.081,38.7,4.7,4.7,0,0,1,26.773,43.391Zm9.269-30.557a4.692,4.692,0,1,1,4.692-4.692A4.7,4.7,0,0,1,36.042,12.834Z" transform="translate(-6164.886 6920.993) rotate(-158)" fill="#d1e7ff"/>
    <path id="Icon_ionic-ios-git-network-8" data-name="Icon ionic-ios-git-network" d="M36.042,0a8.134,8.134,0,0,0-6.107,13.49,8.037,8.037,0,0,0,4.393,2.588v4.957L22.081,27.405,9.844,21.034V16.078A8.124,8.124,0,1,0,2.013,13.49a8.037,8.037,0,0,0,4.393,2.588v6.6a.8.8,0,0,0,.449.725L20.367,30.4v5.049a8.122,8.122,0,1,0,7.82,2.588,8.037,8.037,0,0,0-4.393-2.588V30.4L37.307,23.4a.8.8,0,0,0,.449-.725v-6.6A8.131,8.131,0,0,0,36.042,0ZM3.427,8.131a4.692,4.692,0,1,1,4.692,4.692A4.7,4.7,0,0,1,3.427,8.131Zm23.346,35.26A4.692,4.692,0,1,1,22.081,38.7,4.7,4.7,0,0,1,26.773,43.391Zm9.269-30.557a4.692,4.692,0,1,1,4.692-4.692A4.7,4.7,0,0,1,36.042,12.834Z" transform="translate(-6238.937 7207.104) rotate(180)" fill="#d1e7ff"/>
    <path id="Icon_ionic-ios-git-network-9" data-name="Icon ionic-ios-git-network" d="M36.042,0a8.134,8.134,0,0,0-6.107,13.49,8.037,8.037,0,0,0,4.393,2.588v4.957L22.081,27.405,9.844,21.034V16.078A8.124,8.124,0,1,0,2.013,13.49a8.037,8.037,0,0,0,4.393,2.588v6.6a.8.8,0,0,0,.449.725L20.367,30.4v5.049a8.122,8.122,0,1,0,7.82,2.588,8.037,8.037,0,0,0-4.393-2.588V30.4L37.307,23.4a.8.8,0,0,0,.449-.725v-6.6A8.131,8.131,0,0,0,36.042,0ZM3.427,8.131a4.692,4.692,0,1,1,4.692,4.692A4.7,4.7,0,0,1,3.427,8.131Zm23.346,35.26A4.692,4.692,0,1,1,22.081,38.7,4.7,4.7,0,0,1,26.773,43.391Zm9.269-30.557a4.692,4.692,0,1,1,4.692-4.692A4.7,4.7,0,0,1,36.042,12.834Z" transform="translate(-5982.545 7216.068) rotate(180)" fill="#d1e7ff"/>
    <path id="Icon_ionic-ios-git-network-10" data-name="Icon ionic-ios-git-network" d="M36.042,0a8.134,8.134,0,0,0-6.107,13.49,8.037,8.037,0,0,0,4.393,2.588v4.957L22.081,27.405,9.844,21.034V16.078A8.124,8.124,0,1,0,2.013,13.49a8.037,8.037,0,0,0,4.393,2.588v6.6a.8.8,0,0,0,.449.725L20.367,30.4v5.049a8.122,8.122,0,1,0,7.82,2.588,8.037,8.037,0,0,0-4.393-2.588V30.4L37.307,23.4a.8.8,0,0,0,.449-.725v-6.6A8.131,8.131,0,0,0,36.042,0ZM3.427,8.131a4.692,4.692,0,1,1,4.692,4.692A4.7,4.7,0,0,1,3.427,8.131Zm23.346,35.26A4.692,4.692,0,1,1,22.081,38.7,4.7,4.7,0,0,1,26.773,43.391Zm9.269-30.557a4.692,4.692,0,1,1,4.692-4.692A4.7,4.7,0,0,1,36.042,12.834Z" transform="matrix(0.875, 0.485, -0.485, 0.875, -6444.047, 6982.502)" fill="#d1e7ff"/>
    <path id="Icon_ionic-ios-git-network-11" data-name="Icon ionic-ios-git-network" d="M36.042,0a8.134,8.134,0,0,0-6.107,13.49,8.037,8.037,0,0,0,4.393,2.588v4.957L22.081,27.405,9.844,21.034V16.078A8.124,8.124,0,1,0,2.013,13.49a8.037,8.037,0,0,0,4.393,2.588v6.6a.8.8,0,0,0,.449.725L20.367,30.4v5.049a8.122,8.122,0,1,0,7.82,2.588,8.037,8.037,0,0,0-4.393-2.588V30.4L37.307,23.4a.8.8,0,0,0,.449-.725v-6.6A8.131,8.131,0,0,0,36.042,0ZM3.427,8.131a4.692,4.692,0,1,1,4.692,4.692A4.7,4.7,0,0,1,3.427,8.131Zm23.346,35.26A4.692,4.692,0,1,1,22.081,38.7,4.7,4.7,0,0,1,26.773,43.391Zm9.269-30.557a4.692,4.692,0,1,1,4.692-4.692A4.7,4.7,0,0,1,36.042,12.834Z" transform="matrix(0.875, 0.485, -0.485, 0.875, -6203.58, 6782.885)" fill="#d1e7ff"/>
    <path id="Icon_ionic-ios-git-network-12" data-name="Icon ionic-ios-git-network" d="M36.042,0a8.134,8.134,0,0,0-6.107,13.49,8.037,8.037,0,0,0,4.393,2.588v4.957L22.081,27.405,9.844,21.034V16.078A8.124,8.124,0,1,0,2.013,13.49a8.037,8.037,0,0,0,4.393,2.588v6.6a.8.8,0,0,0,.449.725L20.367,30.4v5.049a8.122,8.122,0,1,0,7.82,2.588,8.037,8.037,0,0,0-4.393-2.588V30.4L37.307,23.4a.8.8,0,0,0,.449-.725v-6.6A8.131,8.131,0,0,0,36.042,0ZM3.427,8.131a4.692,4.692,0,1,1,4.692,4.692A4.7,4.7,0,0,1,3.427,8.131Zm23.346,35.26A4.692,4.692,0,1,1,22.081,38.7,4.7,4.7,0,0,1,26.773,43.391Zm9.269-30.557a4.692,4.692,0,1,1,4.692-4.692A4.7,4.7,0,0,1,36.042,12.834Z" transform="matrix(0.259, -0.966, 0.966, 0.259, -6508.491, 7265.923)" fill="#d1e7ff"/>
    <path id="Icon_ionic-ios-git-network-13" data-name="Icon ionic-ios-git-network" d="M36.042,0a8.134,8.134,0,0,0-6.107,13.49,8.037,8.037,0,0,0,4.393,2.588v4.957L22.081,27.405,9.844,21.034V16.078A8.124,8.124,0,1,0,2.013,13.49a8.037,8.037,0,0,0,4.393,2.588v6.6a.8.8,0,0,0,.449.725L20.367,30.4v5.049a8.122,8.122,0,1,0,7.82,2.588,8.037,8.037,0,0,0-4.393-2.588V30.4L37.307,23.4a.8.8,0,0,0,.449-.725v-6.6A8.131,8.131,0,0,0,36.042,0ZM3.427,8.131a4.692,4.692,0,1,1,4.692,4.692A4.7,4.7,0,0,1,3.427,8.131Zm23.346,35.26A4.692,4.692,0,1,1,22.081,38.7,4.7,4.7,0,0,1,26.773,43.391Zm9.269-30.557a4.692,4.692,0,1,1,4.692-4.692A4.7,4.7,0,0,1,36.042,12.834Z" transform="matrix(0.259, -0.966, 0.966, 0.259, -6297.703, 7078.922)" fill="#d1e7ff"/>
    <path id="Icon_ionic-ios-git-network-14" data-name="Icon ionic-ios-git-network" d="M36.042,0a8.134,8.134,0,0,0-6.107,13.49,8.037,8.037,0,0,0,4.393,2.588v4.957L22.081,27.405,9.844,21.034V16.078A8.124,8.124,0,1,0,2.013,13.49a8.037,8.037,0,0,0,4.393,2.588v6.6a.8.8,0,0,0,.449.725L20.367,30.4v5.049a8.122,8.122,0,1,0,7.82,2.588,8.037,8.037,0,0,0-4.393-2.588V30.4L37.307,23.4a.8.8,0,0,0,.449-.725v-6.6A8.131,8.131,0,0,0,36.042,0ZM3.427,8.131a4.692,4.692,0,1,1,4.692,4.692A4.7,4.7,0,0,1,3.427,8.131Zm23.346,35.26A4.692,4.692,0,1,1,22.081,38.7,4.7,4.7,0,0,1,26.773,43.391Zm9.269-30.557a4.692,4.692,0,1,1,4.692-4.692A4.7,4.7,0,0,1,36.042,12.834Z" transform="matrix(0.259, -0.966, 0.966, 0.259, -6391.261, 7142.248)" fill="#d1e7ff"/>
    <path id="Icon_ionic-ios-git-network-15" data-name="Icon ionic-ios-git-network" d="M36.042,0a8.134,8.134,0,0,0-6.107,13.49,8.037,8.037,0,0,0,4.393,2.588v4.957L22.081,27.405,9.844,21.034V16.078A8.124,8.124,0,1,0,2.013,13.49a8.037,8.037,0,0,0,4.393,2.588v6.6a.8.8,0,0,0,.449.725L20.367,30.4v5.049a8.122,8.122,0,1,0,7.82,2.588,8.037,8.037,0,0,0-4.393-2.588V30.4L37.307,23.4a.8.8,0,0,0,.449-.725v-6.6A8.131,8.131,0,0,0,36.042,0ZM3.427,8.131a4.692,4.692,0,1,1,4.692,4.692A4.7,4.7,0,0,1,3.427,8.131Zm23.346,35.26A4.692,4.692,0,1,1,22.081,38.7,4.7,4.7,0,0,1,26.773,43.391Zm9.269-30.557a4.692,4.692,0,1,1,4.692-4.692A4.7,4.7,0,0,1,36.042,12.834Z" transform="matrix(0.259, -0.966, 0.966, 0.259, -6110.273, 6947.914)" fill="#d1e7ff"/>
    <path id="Icon_ionic-ios-git-network-16" data-name="Icon ionic-ios-git-network" d="M36.042,0a8.134,8.134,0,0,0-6.107,13.49,8.037,8.037,0,0,0,4.393,2.588v4.957L22.081,27.405,9.844,21.034V16.078A8.124,8.124,0,1,0,2.013,13.49a8.037,8.037,0,0,0,4.393,2.588v6.6a.8.8,0,0,0,.449.725L20.367,30.4v5.049a8.122,8.122,0,1,0,7.82,2.588,8.037,8.037,0,0,0-4.393-2.588V30.4L37.307,23.4a.8.8,0,0,0,.449-.725v-6.6A8.131,8.131,0,0,0,36.042,0ZM3.427,8.131a4.692,4.692,0,1,1,4.692,4.692A4.7,4.7,0,0,1,3.427,8.131Zm23.346,35.26A4.692,4.692,0,1,1,22.081,38.7,4.7,4.7,0,0,1,26.773,43.391Zm9.269-30.557a4.692,4.692,0,1,1,4.692-4.692A4.7,4.7,0,0,1,36.042,12.834Z" transform="matrix(0.259, -0.966, 0.966, 0.259, -6497.471, 6945.885)" fill="#d1e7ff"/>
    <path id="Icon_ionic-ios-git-network-17" data-name="Icon ionic-ios-git-network" d="M36.042,0a8.134,8.134,0,0,0-6.107,13.49,8.037,8.037,0,0,0,4.393,2.588v4.957L22.081,27.405,9.844,21.034V16.078A8.124,8.124,0,1,0,2.013,13.49a8.037,8.037,0,0,0,4.393,2.588v6.6a.8.8,0,0,0,.449.725L20.367,30.4v5.049a8.122,8.122,0,1,0,7.82,2.588,8.037,8.037,0,0,0-4.393-2.588V30.4L37.307,23.4a.8.8,0,0,0,.449-.725v-6.6A8.131,8.131,0,0,0,36.042,0ZM3.427,8.131a4.692,4.692,0,1,1,4.692,4.692A4.7,4.7,0,0,1,3.427,8.131Zm23.346,35.26A4.692,4.692,0,1,1,22.081,38.7,4.7,4.7,0,0,1,26.773,43.391Zm9.269-30.557a4.692,4.692,0,1,1,4.692-4.692A4.7,4.7,0,0,1,36.042,12.834Z" transform="matrix(0.259, -0.966, 0.966, 0.259, -6466.695, 6800.148)" fill="#d1e7ff"/>
    <path id="Icon_ionic-ios-git-network-18" data-name="Icon ionic-ios-git-network" d="M36.042,0a8.134,8.134,0,0,0-6.107,13.49,8.037,8.037,0,0,0,4.393,2.588v4.957L22.081,27.405,9.844,21.034V16.078A8.124,8.124,0,1,0,2.013,13.49a8.037,8.037,0,0,0,4.393,2.588v6.6a.8.8,0,0,0,.449.725L20.367,30.4v5.049a8.122,8.122,0,1,0,7.82,2.588,8.037,8.037,0,0,0-4.393-2.588V30.4L37.307,23.4a.8.8,0,0,0,.449-.725v-6.6A8.131,8.131,0,0,0,36.042,0ZM3.427,8.131a4.692,4.692,0,1,1,4.692,4.692A4.7,4.7,0,0,1,3.427,8.131Zm23.346,35.26A4.692,4.692,0,1,1,22.081,38.7,4.7,4.7,0,0,1,26.773,43.391Zm9.269-30.557a4.692,4.692,0,1,1,4.692-4.692A4.7,4.7,0,0,1,36.042,12.834Z" transform="matrix(0.259, -0.966, 0.966, 0.259, -6196.651, 7268.524)" fill="#d1e7ff"/>
    <path id="Icon_ionic-ios-git-network-19" data-name="Icon ionic-ios-git-network" d="M36.042,0a8.134,8.134,0,0,0-6.107,13.49,8.037,8.037,0,0,0,4.393,2.588v4.957L22.081,27.405,9.844,21.034V16.078A8.124,8.124,0,1,0,2.013,13.49a8.037,8.037,0,0,0,4.393,2.588v6.6a.8.8,0,0,0,.449.725L20.367,30.4v5.049a8.122,8.122,0,1,0,7.82,2.588,8.037,8.037,0,0,0-4.393-2.588V30.4L37.307,23.4a.8.8,0,0,0,.449-.725v-6.6A8.131,8.131,0,0,0,36.042,0ZM3.427,8.131a4.692,4.692,0,1,1,4.692,4.692A4.7,4.7,0,0,1,3.427,8.131Zm23.346,35.26A4.692,4.692,0,1,1,22.081,38.7,4.7,4.7,0,0,1,26.773,43.391Zm9.269-30.557a4.692,4.692,0,1,1,4.692-4.692A4.7,4.7,0,0,1,36.042,12.834Z" transform="matrix(0.259, -0.966, 0.966, 0.259, -5955.454, 7106.917)" fill="#d1e7ff"/>
    <path id="Icon_ionic-ios-git-network-20" data-name="Icon ionic-ios-git-network" d="M36.042,0a8.134,8.134,0,0,0-6.107,13.49,8.037,8.037,0,0,0,4.393,2.588v4.957L22.081,27.405,9.844,21.034V16.078A8.124,8.124,0,1,0,2.013,13.49a8.037,8.037,0,0,0,4.393,2.588v6.6a.8.8,0,0,0,.449.725L20.367,30.4v5.049a8.122,8.122,0,1,0,7.82,2.588,8.037,8.037,0,0,0-4.393-2.588V30.4L37.307,23.4a.8.8,0,0,0,.449-.725v-6.6A8.131,8.131,0,0,0,36.042,0ZM3.427,8.131a4.692,4.692,0,1,1,4.692,4.692A4.7,4.7,0,0,1,3.427,8.131Zm23.346,35.26A4.692,4.692,0,1,1,22.081,38.7,4.7,4.7,0,0,1,26.773,43.391Zm9.269-30.557a4.692,4.692,0,1,1,4.692-4.692A4.7,4.7,0,0,1,36.042,12.834Z" transform="matrix(-0.966, 0.259, -0.259, -0.966, -6012.74, 6802.053)" fill="#d1e7ff"/>
    <path id="Icon_ionic-ios-git-network-21" data-name="Icon ionic-ios-git-network" d="M36.042,0a8.134,8.134,0,0,0-6.107,13.49,8.037,8.037,0,0,0,4.393,2.588v4.957L22.081,27.405,9.844,21.034V16.078A8.124,8.124,0,1,0,2.013,13.49a8.037,8.037,0,0,0,4.393,2.588v6.6a.8.8,0,0,0,.449.725L20.367,30.4v5.049a8.122,8.122,0,1,0,7.82,2.588,8.037,8.037,0,0,0-4.393-2.588V30.4L37.307,23.4a.8.8,0,0,0,.449-.725v-6.6A8.131,8.131,0,0,0,36.042,0ZM3.427,8.131a4.692,4.692,0,1,1,4.692,4.692A4.7,4.7,0,0,1,3.427,8.131Zm23.346,35.26A4.692,4.692,0,1,1,22.081,38.7,4.7,4.7,0,0,1,26.773,43.391Zm9.269-30.557a4.692,4.692,0,1,1,4.692-4.692A4.7,4.7,0,0,1,36.042,12.834Z" transform="matrix(-0.966, 0.259, -0.259, -0.966, -6315.09, 7273.032)" fill="#d1e7ff"/>
    <path id="Icon_ionic-ios-git-network-22" data-name="Icon ionic-ios-git-network" d="M36.042,0a8.134,8.134,0,0,0-6.107,13.49,8.037,8.037,0,0,0,4.393,2.588v4.957L22.081,27.405,9.844,21.034V16.078A8.124,8.124,0,1,0,2.013,13.49a8.037,8.037,0,0,0,4.393,2.588v6.6a.8.8,0,0,0,.449.725L20.367,30.4v5.049a8.122,8.122,0,1,0,7.82,2.588,8.037,8.037,0,0,0-4.393-2.588V30.4L37.307,23.4a.8.8,0,0,0,.449-.725v-6.6A8.131,8.131,0,0,0,36.042,0ZM3.427,8.131a4.692,4.692,0,1,1,4.692,4.692A4.7,4.7,0,0,1,3.427,8.131Zm23.346,35.26A4.692,4.692,0,1,1,22.081,38.7,4.7,4.7,0,0,1,26.773,43.391Zm9.269-30.557a4.692,4.692,0,1,1,4.692-4.692A4.7,4.7,0,0,1,36.042,12.834Z" transform="matrix(-0.966, 0.259, -0.259, -0.966, -6023.684, 7091.767)" fill="#d1e7ff"/>
    <path id="Icon_ionic-ios-git-network-23" data-name="Icon ionic-ios-git-network" d="M36.042,0a8.134,8.134,0,0,0-6.107,13.49,8.037,8.037,0,0,0,4.393,2.588v4.957L22.081,27.405,9.844,21.034V16.078A8.124,8.124,0,1,0,2.013,13.49a8.037,8.037,0,0,0,4.393,2.588v6.6a.8.8,0,0,0,.449.725L20.367,30.4v5.049a8.122,8.122,0,1,0,7.82,2.588,8.037,8.037,0,0,0-4.393-2.588V30.4L37.307,23.4a.8.8,0,0,0,.449-.725v-6.6A8.131,8.131,0,0,0,36.042,0ZM3.427,8.131a4.692,4.692,0,1,1,4.692,4.692A4.7,4.7,0,0,1,3.427,8.131Zm23.346,35.26A4.692,4.692,0,1,1,22.081,38.7,4.7,4.7,0,0,1,26.773,43.391Zm9.269-30.557a4.692,4.692,0,1,1,4.692-4.692A4.7,4.7,0,0,1,36.042,12.834Z" transform="matrix(-0.966, 0.259, -0.259, -0.966, -6469.815, 7142.022)" fill="#d1e7ff"/>
    <path id="Icon_ionic-ios-git-network-24" data-name="Icon ionic-ios-git-network" d="M36.042,0a8.134,8.134,0,0,0-6.107,13.49,8.037,8.037,0,0,0,4.393,2.588v4.957L22.081,27.405,9.844,21.034V16.078A8.124,8.124,0,1,0,2.013,13.49a8.037,8.037,0,0,0,4.393,2.588v6.6a.8.8,0,0,0,.449.725L20.367,30.4v5.049a8.122,8.122,0,1,0,7.82,2.588,8.037,8.037,0,0,0-4.393-2.588V30.4L37.307,23.4a.8.8,0,0,0,.449-.725v-6.6A8.131,8.131,0,0,0,36.042,0ZM3.427,8.131a4.692,4.692,0,1,1,4.692,4.692A4.7,4.7,0,0,1,3.427,8.131Zm23.346,35.26A4.692,4.692,0,1,1,22.081,38.7,4.7,4.7,0,0,1,26.773,43.391Zm9.269-30.557a4.692,4.692,0,1,1,4.692-4.692A4.7,4.7,0,0,1,36.042,12.834Z" transform="matrix(-0.966, 0.259, -0.259, -0.966, -6250.045, 6964.363)" fill="#d1e7ff"/>
  </g>
</svg>
