<svg xmlns="http://www.w3.org/2000/svg" width="77.68" height="77.68" viewBox="0 0 77.68 77.68">
  <path id="Icon_awesome-arrow-circle-right" data-name="Icon awesome-arrow-circle-right" d="M39.4.563A38.84,38.84,0,1,1,.563,39.4,38.833,38.833,0,0,1,39.4.563ZM34.876,23.052,46.7,34.391H18.1a3.75,3.75,0,0,0-3.759,3.759v2.506A3.75,3.75,0,0,0,18.1,44.414H46.7L34.876,55.753a3.763,3.763,0,0,0-.063,5.372l1.723,1.707a3.743,3.743,0,0,0,5.309,0L62.628,42.065a3.743,3.743,0,0,0,0-5.309l-20.782-20.8a3.743,3.743,0,0,0-5.309,0l-1.723,1.707a3.781,3.781,0,0,0,.063,5.387Z" transform="translate(-0.563 -0.563)"/>
</svg>
