<svg xmlns="http://www.w3.org/2000/svg" width="189.435" height="133.195" viewBox="0 0 189.435 133.195">
  <path id="Icon_awesome-youtube" data-name="Icon awesome-youtube" d="M186.526,25.341A23.8,23.8,0,0,0,169.778,8.484C155.005,4.5,95.767,4.5,95.767,4.5S36.53,4.5,21.756,8.484A23.8,23.8,0,0,0,5.008,25.341C1.05,40.209,1.05,71.232,1.05,71.232s0,31.023,3.958,45.892a23.448,23.448,0,0,0,16.748,16.587C36.53,137.7,95.767,137.7,95.767,137.7s59.237,0,74.011-3.984a23.448,23.448,0,0,0,16.748-16.587c3.958-14.869,3.958-45.892,3.958-45.892s0-31.023-3.958-45.892ZM76.393,99.4V43.066L125.9,71.233,76.393,99.4Z" transform="translate(-1.05 -4.5)" fill="#fff"/>
</svg>
