<svg xmlns="http://www.w3.org/2000/svg" width="155.481" height="155.447" viewBox="0 0 155.481 155.447">
  <path id="Icon_awesome-instagram" data-name="Icon awesome-instagram" d="M77.753,40.107a39.855,39.855,0,1,0,39.855,39.855A39.792,39.792,0,0,0,77.753,40.107Zm0,65.765a25.911,25.911,0,1,1,25.911-25.911,25.958,25.958,0,0,1-25.911,25.911Zm50.781-67.4a9.3,9.3,0,1,1-9.3-9.3A9.274,9.274,0,0,1,128.534,38.476Zm26.4,9.435c-.59-12.452-3.434-23.483-12.557-32.571C133.286,6.253,122.256,3.408,109.8,2.784c-12.834-.728-51.3-.728-64.135,0C33.25,3.374,22.22,6.218,13.1,15.306S1.165,35.424.541,47.876c-.728,12.834-.728,51.3,0,64.135.59,12.452,3.434,23.483,12.556,32.571s20.118,11.932,32.571,12.556c12.834.728,51.3.728,64.135,0,12.452-.59,23.483-3.434,32.571-12.557,9.088-9.088,11.932-20.118,12.557-32.571.728-12.834.728-51.266,0-64.1Zm-16.58,77.871a26.233,26.233,0,0,1-14.776,14.776c-10.233,4.058-34.513,3.122-45.821,3.122s-35.623.9-45.821-3.122a26.232,26.232,0,0,1-14.776-14.776C13.1,115.55,14.034,91.269,14.034,79.961s-.9-35.623,3.122-45.821A26.233,26.233,0,0,1,31.932,19.364c10.233-4.058,34.513-3.122,45.821-3.122s35.623-.9,45.821,3.122A26.233,26.233,0,0,1,138.35,34.141c4.058,10.232,3.122,34.513,3.122,45.821S142.409,115.584,138.35,125.782Z" transform="translate(0.005 -2.237)" fill="#fff"/>
</svg>
