<svg xmlns="http://www.w3.org/2000/svg" width="183.987" height="175.818" viewBox="0 0 183.987 175.818">
  <path id="Icon_zocial-linkedin" data-name="Icon zocial-linkedin" d="M-.18,20.639A19.124,19.124,0,0,1,6.036,5.988Q12.252.216,22.2.216,31.965.216,38,5.9q6.216,5.861,6.216,15.273A18.7,18.7,0,0,1,38.18,35.38Q31.965,41.24,21.842,41.24h-.178q-9.768,0-15.806-5.861A19.683,19.683,0,0,1-.18,20.639ZM2.129,176.034V57.4H41.555V176.034H2.129Zm61.27,0h39.426V109.792q0-6.216,1.421-9.59a25.757,25.757,0,0,1,7.548-10.212,19.3,19.3,0,0,1,12.7-4.173q19.891,0,19.891,26.817v63.4h39.426V108.016q0-26.284-12.432-39.87T138.521,54.56q-22.91,0-35.7,19.713v.355h-.178l.178-.355V57.4H63.4q.355,5.683.355,35.341T63.4,176.034Z" transform="translate(0.18 -0.216)" fill="#fff"/>
</svg>
