<svg xmlns="http://www.w3.org/2000/svg" width="177.594" height="144.239" viewBox="0 0 177.594 144.239">
  <path id="Icon_awesome-twitter" data-name="Icon awesome-twitter" d="M159.339,39.328c.113,1.578.113,3.155.113,4.733,0,48.117-36.623,103.559-103.559,103.559A102.857,102.857,0,0,1,0,131.28a75.3,75.3,0,0,0,8.79.451A72.894,72.894,0,0,0,53.977,116.18,36.462,36.462,0,0,1,19.945,90.938a45.9,45.9,0,0,0,6.874.563A38.5,38.5,0,0,0,36.4,90.262,36.4,36.4,0,0,1,7.212,54.54V54.09a36.656,36.656,0,0,0,16.452,4.62A36.452,36.452,0,0,1,12.4,10.029,103.459,103.459,0,0,0,87.445,48.117a41.089,41.089,0,0,1-.9-8.339,36.433,36.433,0,0,1,62.992-24.9,71.66,71.66,0,0,0,23.1-8.79,36.3,36.3,0,0,1-16,20.058,72.967,72.967,0,0,0,20.96-5.634,78.241,78.241,0,0,1-18.255,18.818Z" transform="translate(0 -3.381)" fill="#fff"/>
</svg>
